<?xml version="1.0" encoding="utf-8"?>
<!-- Generator: Adobe Illustrator 24.1.0, SVG Export Plug-In . SVG Version: 6.00 Build 0)  -->
<svg version="1.1" id="Layer_1" xmlns="http://www.w3.org/2000/svg" xmlns:xlink="http://www.w3.org/1999/xlink" x="0px" y="0px"
	 viewBox="0 0 1000 1000" style="enable-background:new 0 0 1000 1000;" xml:space="preserve">
<style type="text/css">
	.st0{fill:#000829;}
	.st1{fill:#6C7183;}
</style>
<rect x="98" class="st0" width="2" height="100"/>
<rect x="49" class="st0" width="2" height="100"/>
<rect y="98" class="st0" width="100" height="2"/>
<rect y="49" class="st0" width="100" height="2"/>
<rect x="49" y="45" class="st1" width="2" height="10"/>
<rect x="45" y="49" class="st1" width="10" height="2"/>
<rect x="98" y="200" class="st0" width="2" height="100"/>
<rect x="49" y="200" class="st0" width="2" height="100"/>
<rect y="298" class="st0" width="100" height="2"/>
<rect y="249" class="st0" width="100" height="2"/>
<rect x="49" y="245" class="st1" width="2" height="10"/>
<rect x="45" y="249" class="st1" width="10" height="2"/>
<rect x="98" y="100" class="st0" width="2" height="100"/>
<rect x="49" y="100" class="st0" width="2" height="100"/>
<rect y="198" class="st0" width="100" height="2"/>
<rect y="149" class="st0" width="100" height="2"/>
<rect x="49" y="145" class="st1" width="2" height="10"/>
<rect x="45" y="149" class="st1" width="10" height="2"/>
<rect x="98" y="300" class="st0" width="2" height="100"/>
<rect x="49" y="300" class="st0" width="2" height="100"/>
<rect y="398" class="st0" width="100" height="2"/>
<rect y="349" class="st0" width="100" height="2"/>
<rect x="49" y="345" class="st1" width="2" height="10"/>
<rect x="45" y="349" class="st1" width="10" height="2"/>
<rect x="598" class="st0" width="2" height="100"/>
<rect x="549" class="st0" width="2" height="100"/>
<rect x="500" y="98" class="st0" width="100" height="2"/>
<rect x="500" y="49" class="st0" width="100" height="2"/>
<rect x="549" y="45" class="st1" width="2" height="10"/>
<rect x="545" y="49" class="st1" width="10" height="2"/>
<rect x="598" y="200" class="st0" width="2" height="100"/>
<rect x="549" y="200" class="st0" width="2" height="100"/>
<rect x="500" y="298" class="st0" width="100" height="2"/>
<rect x="500" y="249" class="st0" width="100" height="2"/>
<rect x="549" y="245" class="st1" width="2" height="10"/>
<rect x="545" y="249" class="st1" width="10" height="2"/>
<rect x="598" y="100" class="st0" width="2" height="100"/>
<rect x="549" y="100" class="st0" width="2" height="100"/>
<rect x="500" y="198" class="st0" width="100" height="2"/>
<rect x="500" y="149" class="st0" width="100" height="2"/>
<rect x="549" y="145" class="st1" width="2" height="10"/>
<rect x="545" y="149" class="st1" width="10" height="2"/>
<rect x="598" y="300" class="st0" width="2" height="100"/>
<rect x="549" y="300" class="st0" width="2" height="100"/>
<rect x="500" y="398" class="st0" width="100" height="2"/>
<rect x="500" y="349" class="st0" width="100" height="2"/>
<rect x="549" y="345" class="st1" width="2" height="10"/>
<rect x="545" y="349" class="st1" width="10" height="2"/>
<rect x="198" class="st0" width="2" height="100"/>
<rect x="149" class="st0" width="2" height="100"/>
<rect x="100" y="98" class="st0" width="100" height="2"/>
<rect x="100" y="49" class="st0" width="100" height="2"/>
<rect x="149" y="45" class="st1" width="2" height="10"/>
<rect x="145" y="49" class="st1" width="10" height="2"/>
<rect x="198" y="200" class="st0" width="2" height="100"/>
<rect x="149" y="200" class="st0" width="2" height="100"/>
<rect x="100" y="298" class="st0" width="100" height="2"/>
<rect x="100" y="249" class="st0" width="100" height="2"/>
<rect x="149" y="245" class="st1" width="2" height="10"/>
<rect x="145" y="249" class="st1" width="10" height="2"/>
<rect x="198" y="100" class="st0" width="2" height="100"/>
<rect x="149" y="100" class="st0" width="2" height="100"/>
<rect x="100" y="198" class="st0" width="100" height="2"/>
<rect x="100" y="149" class="st0" width="100" height="2"/>
<rect x="149" y="145" class="st1" width="2" height="10"/>
<rect x="145" y="149" class="st1" width="10" height="2"/>
<rect x="198" y="300" class="st0" width="2" height="100"/>
<rect x="149" y="300" class="st0" width="2" height="100"/>
<rect x="100" y="398" class="st0" width="100" height="2"/>
<rect x="100" y="349" class="st0" width="100" height="2"/>
<rect x="149" y="345" class="st1" width="2" height="10"/>
<rect x="145" y="349" class="st1" width="10" height="2"/>
<rect x="698" class="st0" width="2" height="100"/>
<rect x="649" class="st0" width="2" height="100"/>
<rect x="600" y="98" class="st0" width="100" height="2"/>
<rect x="600" y="49" class="st0" width="100" height="2"/>
<rect x="649" y="45" class="st1" width="2" height="10"/>
<rect x="645" y="49" class="st1" width="10" height="2"/>
<rect x="698" y="200" class="st0" width="2" height="100"/>
<rect x="649" y="200" class="st0" width="2" height="100"/>
<rect x="600" y="298" class="st0" width="100" height="2"/>
<rect x="600" y="249" class="st0" width="100" height="2"/>
<rect x="649" y="245" class="st1" width="2" height="10"/>
<rect x="645" y="249" class="st1" width="10" height="2"/>
<rect x="698" y="100" class="st0" width="2" height="100"/>
<rect x="649" y="100" class="st0" width="2" height="100"/>
<rect x="600" y="198" class="st0" width="100" height="2"/>
<rect x="600" y="149" class="st0" width="100" height="2"/>
<rect x="649" y="145" class="st1" width="2" height="10"/>
<rect x="645" y="149" class="st1" width="10" height="2"/>
<rect x="698" y="300" class="st0" width="2" height="100"/>
<rect x="649" y="300" class="st0" width="2" height="100"/>
<rect x="600" y="398" class="st0" width="100" height="2"/>
<rect x="600" y="349" class="st0" width="100" height="2"/>
<rect x="649" y="345" class="st1" width="2" height="10"/>
<rect x="645" y="349" class="st1" width="10" height="2"/>
<rect x="298" class="st0" width="2" height="100"/>
<rect x="249" class="st0" width="2" height="100"/>
<rect x="200" y="98" class="st0" width="100" height="2"/>
<rect x="200" y="49" class="st0" width="100" height="2"/>
<rect x="249" y="45" class="st1" width="2" height="10"/>
<rect x="245" y="49" class="st1" width="10" height="2"/>
<rect x="298" y="200" class="st0" width="2" height="100"/>
<rect x="249" y="200" class="st0" width="2" height="100"/>
<rect x="200" y="298" class="st0" width="100" height="2"/>
<rect x="200" y="249" class="st0" width="100" height="2"/>
<rect x="249" y="245" class="st1" width="2" height="10"/>
<rect x="245" y="249" class="st1" width="10" height="2"/>
<rect x="298" y="100" class="st0" width="2" height="100"/>
<rect x="249" y="100" class="st0" width="2" height="100"/>
<rect x="200" y="198" class="st0" width="100" height="2"/>
<rect x="200" y="149" class="st0" width="100" height="2"/>
<rect x="249" y="145" class="st1" width="2" height="10"/>
<rect x="245" y="149" class="st1" width="10" height="2"/>
<rect x="298" y="300" class="st0" width="2" height="100"/>
<rect x="249" y="300" class="st0" width="2" height="100"/>
<rect x="200" y="398" class="st0" width="100" height="2"/>
<rect x="200" y="349" class="st0" width="100" height="2"/>
<rect x="249" y="345" class="st1" width="2" height="10"/>
<rect x="245" y="349" class="st1" width="10" height="2"/>
<rect x="798" class="st0" width="2" height="100"/>
<rect x="749" class="st0" width="2" height="100"/>
<rect x="700" y="98" class="st0" width="100" height="2"/>
<rect x="700" y="49" class="st0" width="100" height="2"/>
<rect x="749" y="45" class="st1" width="2" height="10"/>
<rect x="745" y="49" class="st1" width="10" height="2"/>
<rect x="798" y="200" class="st0" width="2" height="100"/>
<rect x="749" y="200" class="st0" width="2" height="100"/>
<rect x="700" y="298" class="st0" width="100" height="2"/>
<rect x="700" y="249" class="st0" width="100" height="2"/>
<rect x="749" y="245" class="st1" width="2" height="10"/>
<rect x="745" y="249" class="st1" width="10" height="2"/>
<rect x="798" y="100" class="st0" width="2" height="100"/>
<rect x="749" y="100" class="st0" width="2" height="100"/>
<rect x="700" y="198" class="st0" width="100" height="2"/>
<rect x="700" y="149" class="st0" width="100" height="2"/>
<rect x="749" y="145" class="st1" width="2" height="10"/>
<rect x="745" y="149" class="st1" width="10" height="2"/>
<rect x="798" y="300" class="st0" width="2" height="100"/>
<rect x="749" y="300" class="st0" width="2" height="100"/>
<rect x="700" y="398" class="st0" width="100" height="2"/>
<rect x="700" y="349" class="st0" width="100" height="2"/>
<rect x="749" y="345" class="st1" width="2" height="10"/>
<rect x="745" y="349" class="st1" width="10" height="2"/>
<rect x="398" class="st0" width="2" height="100"/>
<rect x="349" class="st0" width="2" height="100"/>
<rect x="300" y="98" class="st0" width="100" height="2"/>
<rect x="300" y="49" class="st0" width="100" height="2"/>
<rect x="349" y="45" class="st1" width="2" height="10"/>
<rect x="345" y="49" class="st1" width="10" height="2"/>
<rect x="398" y="200" class="st0" width="2" height="100"/>
<rect x="349" y="200" class="st0" width="2" height="100"/>
<rect x="300" y="298" class="st0" width="100" height="2"/>
<rect x="300" y="249" class="st0" width="100" height="2"/>
<rect x="349" y="245" class="st1" width="2" height="10"/>
<rect x="345" y="249" class="st1" width="10" height="2"/>
<rect x="398" y="100" class="st0" width="2" height="100"/>
<rect x="349" y="100" class="st0" width="2" height="100"/>
<rect x="300" y="198" class="st0" width="100" height="2"/>
<rect x="300" y="149" class="st0" width="100" height="2"/>
<rect x="349" y="145" class="st1" width="2" height="10"/>
<rect x="345" y="149" class="st1" width="10" height="2"/>
<rect x="398" y="300" class="st0" width="2" height="100"/>
<rect x="349" y="300" class="st0" width="2" height="100"/>
<rect x="300" y="398" class="st0" width="100" height="2"/>
<rect x="300" y="349" class="st0" width="100" height="2"/>
<rect x="349" y="345" class="st1" width="2" height="10"/>
<rect x="345" y="349" class="st1" width="10" height="2"/>
<rect x="898" class="st0" width="2" height="100"/>
<rect x="849" class="st0" width="2" height="100"/>
<rect x="800" y="98" class="st0" width="100" height="2"/>
<rect x="800" y="49" class="st0" width="100" height="2"/>
<rect x="849" y="45" class="st1" width="2" height="10"/>
<rect x="845" y="49" class="st1" width="10" height="2"/>
<rect x="898" y="200" class="st0" width="2" height="100"/>
<rect x="849" y="200" class="st0" width="2" height="100"/>
<rect x="800" y="298" class="st0" width="100" height="2"/>
<rect x="800" y="249" class="st0" width="100" height="2"/>
<rect x="849" y="245" class="st1" width="2" height="10"/>
<rect x="845" y="249" class="st1" width="10" height="2"/>
<rect x="898" y="100" class="st0" width="2" height="100"/>
<rect x="849" y="100" class="st0" width="2" height="100"/>
<rect x="800" y="198" class="st0" width="100" height="2"/>
<rect x="800" y="149" class="st0" width="100" height="2"/>
<rect x="849" y="145" class="st1" width="2" height="10"/>
<rect x="845" y="149" class="st1" width="10" height="2"/>
<rect x="898" y="300" class="st0" width="2" height="100"/>
<rect x="849" y="300" class="st0" width="2" height="100"/>
<rect x="800" y="398" class="st0" width="100" height="2"/>
<rect x="800" y="349" class="st0" width="100" height="2"/>
<rect x="849" y="345" class="st1" width="2" height="10"/>
<rect x="845" y="349" class="st1" width="10" height="2"/>
<rect x="498" class="st0" width="2" height="100"/>
<rect x="449" class="st0" width="2" height="100"/>
<rect x="400" y="98" class="st0" width="100" height="2"/>
<rect x="400" y="49" class="st0" width="100" height="2"/>
<rect x="449" y="45" class="st1" width="2" height="10"/>
<rect x="445" y="49" class="st1" width="10" height="2"/>
<rect x="498" y="200" class="st0" width="2" height="100"/>
<rect x="449" y="200" class="st0" width="2" height="100"/>
<rect x="400" y="298" class="st0" width="100" height="2"/>
<rect x="400" y="249" class="st0" width="100" height="2"/>
<rect x="449" y="245" class="st1" width="2" height="10"/>
<rect x="445" y="249" class="st1" width="10" height="2"/>
<rect x="498" y="100" class="st0" width="2" height="100"/>
<rect x="449" y="100" class="st0" width="2" height="100"/>
<rect x="400" y="198" class="st0" width="100" height="2"/>
<rect x="400" y="149" class="st0" width="100" height="2"/>
<rect x="449" y="145" class="st1" width="2" height="10"/>
<rect x="445" y="149" class="st1" width="10" height="2"/>
<rect x="498" y="300" class="st0" width="2" height="100"/>
<rect x="449" y="300" class="st0" width="2" height="100"/>
<rect x="400" y="398" class="st0" width="100" height="2"/>
<rect x="400" y="349" class="st0" width="100" height="2"/>
<rect x="449" y="345" class="st1" width="2" height="10"/>
<rect x="445" y="349" class="st1" width="10" height="2"/>
<rect x="998" class="st0" width="2" height="100"/>
<rect x="949" class="st0" width="2" height="100"/>
<rect x="900" y="98" class="st0" width="100" height="2"/>
<rect x="900" y="49" class="st0" width="100" height="2"/>
<rect x="949" y="45" class="st1" width="2" height="10"/>
<rect x="945" y="49" class="st1" width="10" height="2"/>
<rect x="998" y="200" class="st0" width="2" height="100"/>
<rect x="949" y="200" class="st0" width="2" height="100"/>
<rect x="900" y="298" class="st0" width="100" height="2"/>
<rect x="900" y="249" class="st0" width="100" height="2"/>
<rect x="949" y="245" class="st1" width="2" height="10"/>
<rect x="945" y="249" class="st1" width="10" height="2"/>
<rect x="998" y="100" class="st0" width="2" height="100"/>
<rect x="949" y="100" class="st0" width="2" height="100"/>
<rect x="900" y="198" class="st0" width="100" height="2"/>
<rect x="900" y="149" class="st0" width="100" height="2"/>
<rect x="949" y="145" class="st1" width="2" height="10"/>
<rect x="945" y="149" class="st1" width="10" height="2"/>
<rect x="998" y="300" class="st0" width="2" height="100"/>
<rect x="949" y="300" class="st0" width="2" height="100"/>
<rect x="900" y="398" class="st0" width="100" height="2"/>
<rect x="900" y="349" class="st0" width="100" height="2"/>
<rect x="949" y="345" class="st1" width="2" height="10"/>
<rect x="945" y="349" class="st1" width="10" height="2"/>
<rect x="98" y="400" class="st0" width="2" height="100"/>
<rect x="49" y="400" class="st0" width="2" height="100"/>
<rect y="498" class="st0" width="100" height="2"/>
<rect y="449" class="st0" width="100" height="2"/>
<rect x="49" y="445" class="st1" width="2" height="10"/>
<rect x="45" y="449" class="st1" width="10" height="2"/>
<rect x="98" y="600" class="st0" width="2" height="100"/>
<rect x="49" y="600" class="st0" width="2" height="100"/>
<rect y="698" class="st0" width="100" height="2"/>
<rect y="649" class="st0" width="100" height="2"/>
<rect x="49" y="645" class="st1" width="2" height="10"/>
<rect x="45" y="649" class="st1" width="10" height="2"/>
<rect x="98" y="800" class="st0" width="2" height="100"/>
<rect x="49" y="800" class="st0" width="2" height="100"/>
<rect y="898" class="st0" width="100" height="2"/>
<rect y="849" class="st0" width="100" height="2"/>
<rect x="49" y="845" class="st1" width="2" height="10"/>
<rect x="45" y="849" class="st1" width="10" height="2"/>
<rect x="98" y="500" class="st0" width="2" height="100"/>
<rect x="49" y="500" class="st0" width="2" height="100"/>
<rect y="598" class="st0" width="100" height="2"/>
<rect y="549" class="st0" width="100" height="2"/>
<rect x="49" y="545" class="st1" width="2" height="10"/>
<rect x="45" y="549" class="st1" width="10" height="2"/>
<rect x="98" y="700" class="st0" width="2" height="100"/>
<rect x="49" y="700" class="st0" width="2" height="100"/>
<rect y="798" class="st0" width="100" height="2"/>
<rect y="749" class="st0" width="100" height="2"/>
<rect x="49" y="745" class="st1" width="2" height="10"/>
<rect x="45" y="749" class="st1" width="10" height="2"/>
<rect x="98" y="900" class="st0" width="2" height="100"/>
<rect x="49" y="900" class="st0" width="2" height="100"/>
<rect y="998" class="st0" width="100" height="2"/>
<rect y="949" class="st0" width="100" height="2"/>
<rect x="49" y="945" class="st1" width="2" height="10"/>
<rect x="45" y="949" class="st1" width="10" height="2"/>
<rect x="598" y="400" class="st0" width="2" height="100"/>
<rect x="549" y="400" class="st0" width="2" height="100"/>
<rect x="500" y="498" class="st0" width="100" height="2"/>
<rect x="500" y="449" class="st0" width="100" height="2"/>
<rect x="549" y="445" class="st1" width="2" height="10"/>
<rect x="545" y="449" class="st1" width="10" height="2"/>
<rect x="598" y="600" class="st0" width="2" height="100"/>
<rect x="549" y="600" class="st0" width="2" height="100"/>
<rect x="500" y="698" class="st0" width="100" height="2"/>
<rect x="500" y="649" class="st0" width="100" height="2"/>
<rect x="549" y="645" class="st1" width="2" height="10"/>
<rect x="545" y="649" class="st1" width="10" height="2"/>
<rect x="598" y="800" class="st0" width="2" height="100"/>
<rect x="549" y="800" class="st0" width="2" height="100"/>
<rect x="500" y="898" class="st0" width="100" height="2"/>
<rect x="500" y="849" class="st0" width="100" height="2"/>
<rect x="549" y="845" class="st1" width="2" height="10"/>
<rect x="545" y="849" class="st1" width="10" height="2"/>
<rect x="598" y="500" class="st0" width="2" height="100"/>
<rect x="549" y="500" class="st0" width="2" height="100"/>
<rect x="500" y="598" class="st0" width="100" height="2"/>
<rect x="500" y="549" class="st0" width="100" height="2"/>
<rect x="549" y="545" class="st1" width="2" height="10"/>
<rect x="545" y="549" class="st1" width="10" height="2"/>
<rect x="598" y="700" class="st0" width="2" height="100"/>
<rect x="549" y="700" class="st0" width="2" height="100"/>
<rect x="500" y="798" class="st0" width="100" height="2"/>
<rect x="500" y="749" class="st0" width="100" height="2"/>
<rect x="549" y="745" class="st1" width="2" height="10"/>
<rect x="545" y="749" class="st1" width="10" height="2"/>
<rect x="598" y="900" class="st0" width="2" height="100"/>
<rect x="549" y="900" class="st0" width="2" height="100"/>
<rect x="500" y="998" class="st0" width="100" height="2"/>
<rect x="500" y="949" class="st0" width="100" height="2"/>
<rect x="549" y="945" class="st1" width="2" height="10"/>
<rect x="545" y="949" class="st1" width="10" height="2"/>
<rect x="198" y="400" class="st0" width="2" height="100"/>
<rect x="149" y="400" class="st0" width="2" height="100"/>
<rect x="100" y="498" class="st0" width="100" height="2"/>
<rect x="100" y="449" class="st0" width="100" height="2"/>
<rect x="149" y="445" class="st1" width="2" height="10"/>
<rect x="145" y="449" class="st1" width="10" height="2"/>
<rect x="198" y="600" class="st0" width="2" height="100"/>
<rect x="149" y="600" class="st0" width="2" height="100"/>
<rect x="100" y="698" class="st0" width="100" height="2"/>
<rect x="100" y="649" class="st0" width="100" height="2"/>
<rect x="149" y="645" class="st1" width="2" height="10"/>
<rect x="145" y="649" class="st1" width="10" height="2"/>
<rect x="198" y="800" class="st0" width="2" height="100"/>
<rect x="149" y="800" class="st0" width="2" height="100"/>
<rect x="100" y="898" class="st0" width="100" height="2"/>
<rect x="100" y="849" class="st0" width="100" height="2"/>
<rect x="149" y="845" class="st1" width="2" height="10"/>
<rect x="145" y="849" class="st1" width="10" height="2"/>
<rect x="198" y="500" class="st0" width="2" height="100"/>
<rect x="149" y="500" class="st0" width="2" height="100"/>
<rect x="100" y="598" class="st0" width="100" height="2"/>
<rect x="100" y="549" class="st0" width="100" height="2"/>
<rect x="149" y="545" class="st1" width="2" height="10"/>
<rect x="145" y="549" class="st1" width="10" height="2"/>
<rect x="198" y="700" class="st0" width="2" height="100"/>
<rect x="149" y="700" class="st0" width="2" height="100"/>
<rect x="100" y="798" class="st0" width="100" height="2"/>
<rect x="100" y="749" class="st0" width="100" height="2"/>
<rect x="149" y="745" class="st1" width="2" height="10"/>
<rect x="145" y="749" class="st1" width="10" height="2"/>
<rect x="198" y="900" class="st0" width="2" height="100"/>
<rect x="149" y="900" class="st0" width="2" height="100"/>
<rect x="100" y="998" class="st0" width="100" height="2"/>
<rect x="100" y="949" class="st0" width="100" height="2"/>
<rect x="149" y="945" class="st1" width="2" height="10"/>
<rect x="145" y="949" class="st1" width="10" height="2"/>
<rect x="698" y="400" class="st0" width="2" height="100"/>
<rect x="649" y="400" class="st0" width="2" height="100"/>
<rect x="600" y="498" class="st0" width="100" height="2"/>
<rect x="600" y="449" class="st0" width="100" height="2"/>
<rect x="649" y="445" class="st1" width="2" height="10"/>
<rect x="645" y="449" class="st1" width="10" height="2"/>
<rect x="698" y="600" class="st0" width="2" height="100"/>
<rect x="649" y="600" class="st0" width="2" height="100"/>
<rect x="600" y="698" class="st0" width="100" height="2"/>
<rect x="600" y="649" class="st0" width="100" height="2"/>
<rect x="649" y="645" class="st1" width="2" height="10"/>
<rect x="645" y="649" class="st1" width="10" height="2"/>
<rect x="698" y="800" class="st0" width="2" height="100"/>
<rect x="649" y="800" class="st0" width="2" height="100"/>
<rect x="600" y="898" class="st0" width="100" height="2"/>
<rect x="600" y="849" class="st0" width="100" height="2"/>
<rect x="649" y="845" class="st1" width="2" height="10"/>
<rect x="645" y="849" class="st1" width="10" height="2"/>
<rect x="698" y="500" class="st0" width="2" height="100"/>
<rect x="649" y="500" class="st0" width="2" height="100"/>
<rect x="600" y="598" class="st0" width="100" height="2"/>
<rect x="600" y="549" class="st0" width="100" height="2"/>
<rect x="649" y="545" class="st1" width="2" height="10"/>
<rect x="645" y="549" class="st1" width="10" height="2"/>
<rect x="698" y="700" class="st0" width="2" height="100"/>
<rect x="649" y="700" class="st0" width="2" height="100"/>
<rect x="600" y="798" class="st0" width="100" height="2"/>
<rect x="600" y="749" class="st0" width="100" height="2"/>
<rect x="649" y="745" class="st1" width="2" height="10"/>
<rect x="645" y="749" class="st1" width="10" height="2"/>
<rect x="698" y="900" class="st0" width="2" height="100"/>
<rect x="649" y="900" class="st0" width="2" height="100"/>
<rect x="600" y="998" class="st0" width="100" height="2"/>
<rect x="600" y="949" class="st0" width="100" height="2"/>
<rect x="649" y="945" class="st1" width="2" height="10"/>
<rect x="645" y="949" class="st1" width="10" height="2"/>
<rect x="298" y="400" class="st0" width="2" height="100"/>
<rect x="249" y="400" class="st0" width="2" height="100"/>
<rect x="200" y="498" class="st0" width="100" height="2"/>
<rect x="200" y="449" class="st0" width="100" height="2"/>
<rect x="249" y="445" class="st1" width="2" height="10"/>
<rect x="245" y="449" class="st1" width="10" height="2"/>
<rect x="298" y="600" class="st0" width="2" height="100"/>
<rect x="249" y="600" class="st0" width="2" height="100"/>
<rect x="200" y="698" class="st0" width="100" height="2"/>
<rect x="200" y="649" class="st0" width="100" height="2"/>
<rect x="249" y="645" class="st1" width="2" height="10"/>
<rect x="245" y="649" class="st1" width="10" height="2"/>
<rect x="298" y="800" class="st0" width="2" height="100"/>
<rect x="249" y="800" class="st0" width="2" height="100"/>
<rect x="200" y="898" class="st0" width="100" height="2"/>
<rect x="200" y="849" class="st0" width="100" height="2"/>
<rect x="249" y="845" class="st1" width="2" height="10"/>
<rect x="245" y="849" class="st1" width="10" height="2"/>
<rect x="298" y="500" class="st0" width="2" height="100"/>
<rect x="249" y="500" class="st0" width="2" height="100"/>
<rect x="200" y="598" class="st0" width="100" height="2"/>
<rect x="200" y="549" class="st0" width="100" height="2"/>
<rect x="249" y="545" class="st1" width="2" height="10"/>
<rect x="245" y="549" class="st1" width="10" height="2"/>
<rect x="298" y="700" class="st0" width="2" height="100"/>
<rect x="249" y="700" class="st0" width="2" height="100"/>
<rect x="200" y="798" class="st0" width="100" height="2"/>
<rect x="200" y="749" class="st0" width="100" height="2"/>
<rect x="249" y="745" class="st1" width="2" height="10"/>
<rect x="245" y="749" class="st1" width="10" height="2"/>
<rect x="298" y="900" class="st0" width="2" height="100"/>
<rect x="249" y="900" class="st0" width="2" height="100"/>
<rect x="200" y="998" class="st0" width="100" height="2"/>
<rect x="200" y="949" class="st0" width="100" height="2"/>
<rect x="249" y="945" class="st1" width="2" height="10"/>
<rect x="245" y="949" class="st1" width="10" height="2"/>
<rect x="798" y="400" class="st0" width="2" height="100"/>
<rect x="749" y="400" class="st0" width="2" height="100"/>
<rect x="700" y="498" class="st0" width="100" height="2"/>
<rect x="700" y="449" class="st0" width="100" height="2"/>
<rect x="749" y="445" class="st1" width="2" height="10"/>
<rect x="745" y="449" class="st1" width="10" height="2"/>
<rect x="798" y="600" class="st0" width="2" height="100"/>
<rect x="749" y="600" class="st0" width="2" height="100"/>
<rect x="700" y="698" class="st0" width="100" height="2"/>
<rect x="700" y="649" class="st0" width="100" height="2"/>
<rect x="749" y="645" class="st1" width="2" height="10"/>
<rect x="745" y="649" class="st1" width="10" height="2"/>
<rect x="798" y="800" class="st0" width="2" height="100"/>
<rect x="749" y="800" class="st0" width="2" height="100"/>
<rect x="700" y="898" class="st0" width="100" height="2"/>
<rect x="700" y="849" class="st0" width="100" height="2"/>
<rect x="749" y="845" class="st1" width="2" height="10"/>
<rect x="745" y="849" class="st1" width="10" height="2"/>
<rect x="798" y="500" class="st0" width="2" height="100"/>
<rect x="749" y="500" class="st0" width="2" height="100"/>
<rect x="700" y="598" class="st0" width="100" height="2"/>
<rect x="700" y="549" class="st0" width="100" height="2"/>
<rect x="749" y="545" class="st1" width="2" height="10"/>
<rect x="745" y="549" class="st1" width="10" height="2"/>
<rect x="798" y="700" class="st0" width="2" height="100"/>
<rect x="749" y="700" class="st0" width="2" height="100"/>
<rect x="700" y="798" class="st0" width="100" height="2"/>
<rect x="700" y="749" class="st0" width="100" height="2"/>
<rect x="749" y="745" class="st1" width="2" height="10"/>
<rect x="745" y="749" class="st1" width="10" height="2"/>
<rect x="798" y="900" class="st0" width="2" height="100"/>
<rect x="749" y="900" class="st0" width="2" height="100"/>
<rect x="700" y="998" class="st0" width="100" height="2"/>
<rect x="700" y="949" class="st0" width="100" height="2"/>
<rect x="749" y="945" class="st1" width="2" height="10"/>
<rect x="745" y="949" class="st1" width="10" height="2"/>
<rect x="398" y="400" class="st0" width="2" height="100"/>
<rect x="349" y="400" class="st0" width="2" height="100"/>
<rect x="300" y="498" class="st0" width="100" height="2"/>
<rect x="300" y="449" class="st0" width="100" height="2"/>
<rect x="349" y="445" class="st1" width="2" height="10"/>
<rect x="345" y="449" class="st1" width="10" height="2"/>
<rect x="398" y="600" class="st0" width="2" height="100"/>
<rect x="349" y="600" class="st0" width="2" height="100"/>
<rect x="300" y="698" class="st0" width="100" height="2"/>
<rect x="300" y="649" class="st0" width="100" height="2"/>
<rect x="349" y="645" class="st1" width="2" height="10"/>
<rect x="345" y="649" class="st1" width="10" height="2"/>
<rect x="398" y="800" class="st0" width="2" height="100"/>
<rect x="349" y="800" class="st0" width="2" height="100"/>
<rect x="300" y="898" class="st0" width="100" height="2"/>
<rect x="300" y="849" class="st0" width="100" height="2"/>
<rect x="349" y="845" class="st1" width="2" height="10"/>
<rect x="345" y="849" class="st1" width="10" height="2"/>
<rect x="398" y="500" class="st0" width="2" height="100"/>
<rect x="349" y="500" class="st0" width="2" height="100"/>
<rect x="300" y="598" class="st0" width="100" height="2"/>
<rect x="300" y="549" class="st0" width="100" height="2"/>
<rect x="349" y="545" class="st1" width="2" height="10"/>
<rect x="345" y="549" class="st1" width="10" height="2"/>
<rect x="398" y="700" class="st0" width="2" height="100"/>
<rect x="349" y="700" class="st0" width="2" height="100"/>
<rect x="300" y="798" class="st0" width="100" height="2"/>
<rect x="300" y="749" class="st0" width="100" height="2"/>
<rect x="349" y="745" class="st1" width="2" height="10"/>
<rect x="345" y="749" class="st1" width="10" height="2"/>
<rect x="398" y="900" class="st0" width="2" height="100"/>
<rect x="349" y="900" class="st0" width="2" height="100"/>
<rect x="300" y="998" class="st0" width="100" height="2"/>
<rect x="300" y="949" class="st0" width="100" height="2"/>
<rect x="349" y="945" class="st1" width="2" height="10"/>
<rect x="345" y="949" class="st1" width="10" height="2"/>
<rect x="898" y="400" class="st0" width="2" height="100"/>
<rect x="849" y="400" class="st0" width="2" height="100"/>
<rect x="800" y="498" class="st0" width="100" height="2"/>
<rect x="800" y="449" class="st0" width="100" height="2"/>
<rect x="849" y="445" class="st1" width="2" height="10"/>
<rect x="845" y="449" class="st1" width="10" height="2"/>
<rect x="898" y="600" class="st0" width="2" height="100"/>
<rect x="849" y="600" class="st0" width="2" height="100"/>
<rect x="800" y="698" class="st0" width="100" height="2"/>
<rect x="800" y="649" class="st0" width="100" height="2"/>
<rect x="849" y="645" class="st1" width="2" height="10"/>
<rect x="845" y="649" class="st1" width="10" height="2"/>
<rect x="898" y="800" class="st0" width="2" height="100"/>
<rect x="849" y="800" class="st0" width="2" height="100"/>
<rect x="800" y="898" class="st0" width="100" height="2"/>
<rect x="800" y="849" class="st0" width="100" height="2"/>
<rect x="849" y="845" class="st1" width="2" height="10"/>
<rect x="845" y="849" class="st1" width="10" height="2"/>
<rect x="898" y="500" class="st0" width="2" height="100"/>
<rect x="849" y="500" class="st0" width="2" height="100"/>
<rect x="800" y="598" class="st0" width="100" height="2"/>
<rect x="800" y="549" class="st0" width="100" height="2"/>
<rect x="849" y="545" class="st1" width="2" height="10"/>
<rect x="845" y="549" class="st1" width="10" height="2"/>
<rect x="898" y="700" class="st0" width="2" height="100"/>
<rect x="849" y="700" class="st0" width="2" height="100"/>
<rect x="800" y="798" class="st0" width="100" height="2"/>
<rect x="800" y="749" class="st0" width="100" height="2"/>
<rect x="849" y="745" class="st1" width="2" height="10"/>
<rect x="845" y="749" class="st1" width="10" height="2"/>
<rect x="898" y="900" class="st0" width="2" height="100"/>
<rect x="849" y="900" class="st0" width="2" height="100"/>
<rect x="800" y="998" class="st0" width="100" height="2"/>
<rect x="800" y="949" class="st0" width="100" height="2"/>
<rect x="849" y="945" class="st1" width="2" height="10"/>
<rect x="845" y="949" class="st1" width="10" height="2"/>
<rect x="498" y="400" class="st0" width="2" height="100"/>
<rect x="449" y="400" class="st0" width="2" height="100"/>
<rect x="400" y="498" class="st0" width="100" height="2"/>
<rect x="400" y="449" class="st0" width="100" height="2"/>
<rect x="449" y="445" class="st1" width="2" height="10"/>
<rect x="445" y="449" class="st1" width="10" height="2"/>
<rect x="498" y="600" class="st0" width="2" height="100"/>
<rect x="449" y="600" class="st0" width="2" height="100"/>
<rect x="400" y="698" class="st0" width="100" height="2"/>
<rect x="400" y="649" class="st0" width="100" height="2"/>
<rect x="449" y="645" class="st1" width="2" height="10"/>
<rect x="445" y="649" class="st1" width="10" height="2"/>
<rect x="498" y="800" class="st0" width="2" height="100"/>
<rect x="449" y="800" class="st0" width="2" height="100"/>
<rect x="400" y="898" class="st0" width="100" height="2"/>
<rect x="400" y="849" class="st0" width="100" height="2"/>
<rect x="449" y="845" class="st1" width="2" height="10"/>
<rect x="445" y="849" class="st1" width="10" height="2"/>
<rect x="498" y="500" class="st0" width="2" height="100"/>
<rect x="449" y="500" class="st0" width="2" height="100"/>
<rect x="400" y="598" class="st0" width="100" height="2"/>
<rect x="400" y="549" class="st0" width="100" height="2"/>
<rect x="449" y="545" class="st1" width="2" height="10"/>
<rect x="445" y="549" class="st1" width="10" height="2"/>
<rect x="498" y="700" class="st0" width="2" height="100"/>
<rect x="449" y="700" class="st0" width="2" height="100"/>
<rect x="400" y="798" class="st0" width="100" height="2"/>
<rect x="400" y="749" class="st0" width="100" height="2"/>
<rect x="449" y="745" class="st1" width="2" height="10"/>
<rect x="445" y="749" class="st1" width="10" height="2"/>
<rect x="498" y="900" class="st0" width="2" height="100"/>
<rect x="449" y="900" class="st0" width="2" height="100"/>
<rect x="400" y="998" class="st0" width="100" height="2"/>
<rect x="400" y="949" class="st0" width="100" height="2"/>
<rect x="449" y="945" class="st1" width="2" height="10"/>
<rect x="445" y="949" class="st1" width="10" height="2"/>
<rect x="998" y="400" class="st0" width="2" height="100"/>
<rect x="949" y="400" class="st0" width="2" height="100"/>
<rect x="900" y="498" class="st0" width="100" height="2"/>
<rect x="900" y="449" class="st0" width="100" height="2"/>
<rect x="949" y="445" class="st1" width="2" height="10"/>
<rect x="945" y="449" class="st1" width="10" height="2"/>
<rect x="998" y="600" class="st0" width="2" height="100"/>
<rect x="949" y="600" class="st0" width="2" height="100"/>
<rect x="900" y="698" class="st0" width="100" height="2"/>
<rect x="900" y="649" class="st0" width="100" height="2"/>
<rect x="949" y="645" class="st1" width="2" height="10"/>
<rect x="945" y="649" class="st1" width="10" height="2"/>
<rect x="998" y="800" class="st0" width="2" height="100"/>
<rect x="949" y="800" class="st0" width="2" height="100"/>
<rect x="900" y="898" class="st0" width="100" height="2"/>
<rect x="900" y="849" class="st0" width="100" height="2"/>
<rect x="949" y="845" class="st1" width="2" height="10"/>
<rect x="945" y="849" class="st1" width="10" height="2"/>
<rect x="998" y="500" class="st0" width="2" height="100"/>
<rect x="949" y="500" class="st0" width="2" height="100"/>
<rect x="900" y="598" class="st0" width="100" height="2"/>
<rect x="900" y="549" class="st0" width="100" height="2"/>
<rect x="949" y="545" class="st1" width="2" height="10"/>
<rect x="945" y="549" class="st1" width="10" height="2"/>
<rect x="998" y="700" class="st0" width="2" height="100"/>
<rect x="949" y="700" class="st0" width="2" height="100"/>
<rect x="900" y="798" class="st0" width="100" height="2"/>
<rect x="900" y="749" class="st0" width="100" height="2"/>
<rect x="949" y="745" class="st1" width="2" height="10"/>
<rect x="945" y="749" class="st1" width="10" height="2"/>
<rect x="998" y="900" class="st0" width="2" height="100"/>
<rect x="949" y="900" class="st0" width="2" height="100"/>
<rect x="900" y="998" class="st0" width="100" height="2"/>
<rect x="900" y="949" class="st0" width="100" height="2"/>
<rect x="949" y="945" class="st1" width="2" height="10"/>
<rect x="945" y="949" class="st1" width="10" height="2"/>
</svg>
